<?xml version="1.0" standalone="no"?>
<!DOCTYPE svg PUBLIC "-//W3C//DTD SVG 1.1//EN" "http://www.w3.org/Graphics/SVG/1.1/DTD/svg11.dtd" >
<svg xmlns="http://www.w3.org/2000/svg">
<metadata>
Created by FontForge 20120731 at Sat Dec  3 17:31:06 2016
 By admin
</metadata>
<defs>
<font id="iconfont" horiz-adv-x="1024" >
  <font-face 
    font-family="iconfont"
    font-weight="500"
    font-stretch="normal"
    units-per-em="1024"
    panose-1="2 0 6 3 0 0 0 0 0 0"
    ascent="896"
    descent="-128"
    x-height="792"
    bbox="0 -213 1024 889"
    underline-thickness="0"
    underline-position="0"
    unicode-range="U+0078-E6F9"
  />
<missing-glyph 
 />
    <glyph glyph-name=".notdef" 
 />
    <glyph glyph-name=".notdef" 
 />
    <glyph glyph-name=".null" horiz-adv-x="0" 
 />
    <glyph glyph-name="nonmarkingreturn" horiz-adv-x="341" 
 />
    <glyph glyph-name="x" unicode="x" horiz-adv-x="1001" 
d="M281 543q-27 -1 -53 -1h-83q-18 0 -36.5 -6t-32.5 -18.5t-23 -32t-9 -45.5v-76h912v41q0 16 -0.5 30t-0.5 18q0 13 -5 29t-17 29.5t-31.5 22.5t-49.5 9h-133v-97h-438v97zM955 310v-52q0 -23 0.5 -52t0.5 -58t-10.5 -47.5t-26 -30t-33 -16t-31.5 -4.5q-14 -1 -29.5 -0.5
t-29.5 0.5h-32l-45 128h-439l-44 -128h-29h-34q-20 0 -45 1q-25 0 -41 9.5t-25.5 23t-13.5 29.5t-4 30v167h911zM163 247q-12 0 -21 -8.5t-9 -21.5t9 -21.5t21 -8.5q13 0 22 8.5t9 21.5t-9 21.5t-22 8.5zM316 123q-8 -26 -14 -48q-5 -19 -10.5 -37t-7.5 -25t-3 -15t1 -14.5
t9.5 -10.5t21.5 -4h37h67h81h80h64h36q23 0 34 12t2 38q-5 13 -9.5 30.5t-9.5 34.5q-5 19 -11 39h-368zM336 498v228q0 11 2.5 23t10 21.5t20.5 15.5t34 6h188q31 0 51.5 -14.5t20.5 -52.5v-227h-327z" />
    <glyph glyph-name="yonghu" unicode="&#xe60d;" 
d="M84 -149h-4q-8 2 -12.5 8.5t-3.5 14.5q20 106 80.5 193.5t149.5 138.5q-44 44 -68 100.5t-24 118.5q0 127 90 217t216.5 90t216.5 -90t90 -217q0 -126 -89 -216q91 -51 153 -139t82 -196q2 -8 -3 -15t-13 -8t-14.5 3.5t-8.5 12.5q-20 106 -83 191t-156 129
q-10 5 -11.5 15.5t7.5 17.5q46 38 71 92t25 113q0 111 -78 189t-188.5 78t-188.5 -78t-78 -189q0 -60 26 -114.5t73 -92.5q9 -7 7 -18q-1 -11 -11 -15q-90 -45 -152 -129.5t-82 -188.5q-3 -16 -19 -16z" />
    <glyph glyph-name="mima" unicode="&#xe61b;" 
d="M791 341l-459 1q0 11 -1.5 39.5t-1 47.5t3 44.5t11.5 46.5t24 38q27 30 65.5 51t78.5 21q62 0 109 -40.5t72 -103.5q7 -19 14.5 -27.5t21.5 -8.5q22 -1 32.5 12.5t8.5 30t-5 29.5q-70 180 -253 180q-63 0 -103 -15.5t-77 -56.5q-18 -20 -31.5 -45.5t-21 -51t-12 -53
t-5.5 -52t-2 -47.5t0 -39l-27 -1q-18 0 -31.5 -13t-13.5 -32v-378q0 -19 13.5 -32t31.5 -13h558q19 0 32.5 13t13.5 32v378q0 19 -13.5 32t-32.5 13v0zM766 -18q0 -15 -10.5 -25.5t-25.5 -10.5h-434q-15 0 -25.5 10.5t-10.5 25.5v252q0 15 10.5 25.5t25.5 10.5h434
q15 0 25.5 -10.5t10.5 -25.5v-252z" />
    <glyph glyph-name="home" unicode="&#xe65f;" 
d="M1024 233l-512 538l-512 -538h44l53 55v-501h318v39v304h213v-343h307v486l38 -40h51zM896 315v-489h-228v304v0v40h-293v-344h-239v504l376 394z" />
    <glyph glyph-name="qq" unicode="&#xe648;" 
d="M856 184q-6 81 -83 167q3 7 4.5 21.5t-5 37.5t-22.5 40v2q0 107 -67 177t-164 71q-97 -1 -163.5 -71t-66.5 -177v-2q-17 -17 -23 -40t-5 -37.5t4 -21.5q-77 -86 -83 -167q-2 -41 12 -59q7 -7 17 -4.5t23.5 17.5t24.5 38q13 -46 54 -100q-26 -6 -42 -24t-17 -36.5t7 -35.5
q23 -38 93 -38q106 0 150 42q5 5 15 5t16 -5q43 -42 149 -42q70 0 94 38q7 17 6.5 35.5t-16.5 36.5t-42 24q40 54 53 100q11 -23 24.5 -38t24 -17.5t16.5 4.5q14 18 12 59z" />
    <glyph glyph-name="weibo" unicode="&#xe619;" 
d="M730 320l15 35q29 92 -54 107q-67 12 -205 -33q34 29 33 73t-30 65q-30 19 -69 18.5t-84 -22.5t-90 -54.5t-86 -76.5t-72.5 -89.5t-50.5 -93t-19 -86.5q0 -44 24.5 -89t71 -84t126.5 -64t180 -25q101 0 183 21t132.5 53t85 71.5t48 75t13.5 65.5q0 37 -15.5 64t-38 39.5
t-44.5 20t-38 8.5zM432 -49.5q-123 -11.5 -215.5 39.5t-100 134.5t73.5 150.5t204 78.5t215.5 -39.5t100.5 -134.5t-73.5 -150.5t-204.5 -78.5zM374 273q-67 -11 -107 -59.5t-30.5 -105.5t63.5 -89.5t120.5 -21t107 60t30.5 105.5t-63.5 89t-120.5 21zM358.5 56
q-21.5 -6 -40.5 4t-24.5 29.5t6 37.5t33 24t40.5 -3.5t24.5 -29.5t-6 -38t-33 -24zM433 141q-11 0 -19 7.5t-8 18.5t8 19t19 8t19 -8t8 -19t-8 -18.5t-19 -7.5zM951 604q-44 57 -113 80.5t-153 11.5q-14 -2 -23 -13.5t-7 -25.5t13.5 -22.5t26.5 -6.5q134 19 201 -66
q30 -39 38 -89t-10 -93q-5 -13 0.5 -26t18.5 -19q7 -2 13 -2q24 0 32 21q25 60 14.5 129t-51.5 121zM718 570q-14 -2 -22.5 -13.5t-6.5 -25.5t13.5 -22.5t25.5 -6.5q49 7 72 -22q10 -13 12.5 -30t-3.5 -32q-5 -13 0.5 -26t18.5 -19q7 -2 13 -2q24 0 33 21q12 32 7 67.5
t-27 62.5q-47 61 -136 48z" />
    <glyph glyph-name="dianping" unicode="&#xe68c;" 
d="M314 -65q-14 0 -26 6q-25 14 -25 46v92h-35q-61 0 -105 43.5t-44 105.5v322q0 61 44 105t105 44h38q8 0 14.5 -6.5t6.5 -15t-6.5 -15t-14.5 -6.5h-38q-44 0 -75 -31t-31 -75v-322q0 -44 31 -75t75 -31h77v-135q0 -7 4 -8q9 -6 32 8l215 135h271q44 0 75 31t31 75v322
q0 44 -31 75t-75 31h-423q-9 0 -15 6.5t-6 15t6 15t15 6.5h423q61 0 105 -44t44 -105v-322q0 -62 -44 -105.5t-105 -43.5h-258l-206 -128q-27 -16 -49 -16v0zM805 232h-114q-9 0 -15 6.5t-6 15t6 15t15 6.5h114q8 0 14.5 -6.5t6.5 -15t-6.5 -15t-14.5 -6.5v0zM805 367h-242
q-9 0 -15 6.5t-6 15t6 15t15 6.5h242q8 0 14.5 -6.5t6.5 -15t-6.5 -15t-14.5 -6.5v0zM805 493h-374q-9 0 -15 6t-6 15t6 15.5t15 6.5h374q8 0 14.5 -6.5t6.5 -15.5t-6.5 -15t-14.5 -6v0z" />
    <glyph glyph-name="saoma" unicode="&#xe62f;" 
d="M820 502v-57h43v57q0 59 -33 105t-86 46h-89v-43h89q36 0 56 -33t20 -75zM309 610h57v43h-57q-56 0 -103.5 -47.5t-47.5 -103.5v-57h43v57q0 38 34.5 73t73.5 35zM201 67v88h-43v-88q0 -53 46 -86t105 -33h57v43h-57q-43 0 -75.5 20t-32.5 56zM744 -9h-89v-43h89
q56 0 87.5 31.5t31.5 87.5v88h-43v-88q0 -76 -76 -76zM158 321h705v-42h-705v42z" />
    <glyph glyph-name="tubiaoku03" unicode="&#xe60c;" 
d="M870 269l7 -13q19 -38 19 -83q0 -39 -6 -51q-15 -58 -59 -93t-101 -35l-26 6q-186 48 -332.5 182.5t-224.5 323.5q0 2 -4.5 16t-9.5 33.5t-5 33.5q0 53 27.5 97.5t74.5 68.5q29 15 61 15t61 -15l6 -6q7 -26 7 -32q17 -77 83 -154l6 -6v-13q-20 -71 -76 -109
q71 -107 198 -192q9 25 21.5 45t24 30t21.5 17t16 9l7 2l6 -7q85 -64 173 -64zM294 730q-12 0 -51 -13q-38 -14 -60.5 -49.5t-22.5 -78.5q0 -13 6.5 -36t12.5 -35q72 -177 212 -304t313 -176h26q44 0 78 28t43 75q7 13 7 45q0 19 -13 57v0h-7q-111 11 -179 71
q-47 -29 -57 -90l-7 -26h-19q-149 90 -243 231l-7 19l20 6q24 10 45.5 33t30.5 51q-71 81 -89 172v13q-13 7 -39 7zM512 576v0v-38v0q59 0 106.5 -51.5t47.5 -102.5h38q0 93 -53.5 142.5t-138.5 49.5zM512 653v0v-39v0q96 0 163 -67t67 -163h39q0 64 -36 126t-99 102.5
t-134 40.5zM512 730v0v-39v0q133 0 220 -83t87 -224h39q0 94 -46 174t-126 126t-174 46z" />
    <glyph glyph-name="lvyou" unicode="&#xe61a;" 
d="M390 334q-39 46 -61.5 110t-4.5 137q24 -11 43 -25.5t33 -36.5t24 -42.5t17 -54t11 -59.5t7 -70.5t4.5 -76t4 -86t4.5 -91.5h-33v65h-115q-4 0 -12 -0.5t-27.5 -4.5t-35 -9t-28 -14t-12.5 -21q0 -16 18.5 -30t56.5 -26t103 -19t151 -7q67 0 119.5 7t81.5 16.5t47.5 21.5
t24.5 21t6 16q0 12 -9 22t-36 18.5t-70 8.5h-66v11.5t1 30.5t4.5 47t11.5 60t20 70.5t32 77t46 81.5q46 -63 -32 -164q59 6 80 39t18 92q21 -10 30 -38t3 -93q26 16 39.5 45.5t5 67.5t-44.5 68q16 -1 23.5 -2.5t17 -8t15 -19.5t10.5 -36q13 12 15 31.5t-7.5 39.5t-26 36.5
t-42.5 23.5t-54 0q-11 64 -76 82q-54 15 -95 -9q-26 -16 -26 -40q29 7 59 3.5t39 -19.5q-17 -1 -28 -2.5t-25.5 -9t-23.5 -21t-15 -38.5t-6 -61q2 3 6 8q22 25 33.5 35t34.5 17.5t57 5.5q-21 -13 -44 -44.5t-47.5 -86.5t-40.5 -145.5t-16 -199.5h-49q0 9 0.5 25t-1 65t-6 95
t-16 107t-28.5 111.5t-46 97.5t-67 74q27 4 53.5 2t50 -11t47 -35.5t46.5 -70.5q2 19 2.5 38.5t-2 45t-12.5 46t-26 37.5t-44 25t-66 5q1 2 5 10.5t5.5 10.5t6 8.5t8.5 8t12 5.5t17.5 4.5t23 2t31 1t39.5 -1.5q-31 45 -79 59.5t-91 1t-75.5 -48t-33.5 -78.5q-5 1 -12 2
t-27.5 1.5t-39 -3t-41.5 -14t-39 -28t-27.5 -49t-11.5 -73.5q42 41 63 58.5t36 23.5q-100 -139 0 -230q1 29 4 52.5t5.5 37t9.5 28t9 18.5t11.5 16l9.5 12q1 -17 1.5 -29t3.5 -34.5t8.5 -38t16.5 -34.5t26.5 -31t39 -20.5t52.5 -9.5v0z" />
    <glyph glyph-name="tuijian" unicode="&#xe628;" 
d="M860 517q-10 31 -41 36l-180 32l-81 168q-14 29 -46 29q-31 0 -46 -29l-80 -168l-180 -33q-31 -5 -41 -36t13 -55l130 -123l-34 -180q-6 -33 20 -52q12 -8 27 -9.5t26 5.5l165 83l164 -83q11 -6 23 -6q17 0 30 10q26 19 21 52l-33 180l130 125q23 23 13 54zM822 490
l-144 -139l36 -199q2 -10 -6 -16q-7 -6 -16 -1l-180 91l-181 -91q-8 -5 -16 1q-7 6 -6 15l38 200l-144 137q-7 7 -4 16q3 10 13 11l198 37l88 184q4 9 14 9t14 -9l89 -184l198 -36q10 -1 13 -11q3 -9 -4 -15z" />
    <glyph glyph-name="changyonglvke" unicode="&#xe61e;" 
d="M875 125q-27 51 -79.5 109t-117.5 98q-1 1 -2 3q56 22 91 74.5t35 119.5q0 82 -57.5 139.5t-139.5 57.5q-44 0 -84 -18q25 -11 48 -28q19 5 36 5q64 0 110 -45.5t46 -110.5q0 -47 -22.5 -86.5t-59.5 -60.5q-27 -15 -43 -30q-10 -9 -10 -25q0 -8 5 -14.5t10 -8.5l5 -3
q64 -33 103 -71t84 -105h-62q-9 0 -15 -6.5t-6 -14.5v0q0 -9 6 -15t15 -6h83q13 0 20 5t6.5 13t-2 13.5t-3.5 10.5zM513 298q55 25 89 76t34 114q0 86 -61 146.5t-147 60.5t-146.5 -60.5t-60.5 -146.5q0 -63 34 -114.5t90 -75.5q-39 -13 -73 -38.5t-57.5 -56t-39 -57
t-27.5 -53.5q-3 -6 -4 -12.5t0.5 -16.5t14 -16t35.5 -6h471q32 0 41.5 18.5t2.5 32.5q-2 3 -5 9q-14 27 -23 42.5t-28.5 43.5t-37 45.5t-45 36t-57.5 28.5zM262 488q0 69 49 117.5t117.5 48.5t117.5 -48.5t49 -117.5t-49 -117.5t-117.5 -48.5t-117.5 48.5t-49 117.5zM190 83
q3 8 10 21.5t30 47.5t49 59t66.5 44t82.5 15q45 2 84 -13.5t68 -44t50 -60t37 -69.5h-477z" />
    <glyph glyph-name="wwzxqyziyouxing" unicode="&#xe694;" 
d="M869 682h-44v-745h44q37 0 63.5 29.5t26.5 70.5v546q0 40 -26.5 69.5t-63.5 29.5v0v0zM65 583v-546q0 -41 26.5 -70.5t63.5 -29.5h44v745h-44q-37 0 -63.5 -29.5t-26.5 -69.5v0v0zM664 786q-1 0 -12 6t-14.5 7.5t-15.5 7t-18.5 8t-19 6t-22.5 5.5t-23.5 3.5t-26.5 1.5
t-26.5 -1.5t-23.5 -3.5t-22.5 -5.5t-19 -6t-18.5 -8t-15.5 -7t-14.5 -7.5t-12 -6v-104h-98v-745h500v745h-98v104v0v0zM610 682h-196v66q48 23 98 23t98 -23v-66v0v0zM610 682z" />
    <glyph glyph-name="wodejifen01" unicode="&#xe61c;" 
d="M512 57q-90 0 -165.5 19t-119.5 52t-45 72q-25 7 -49 15q-1 -6 -1 -14q0 -53 50.5 -98.5t138 -72t191 -26.5t191 26.5t138.5 72t51 98.5q0 9 -2 18q-25 -8 -49 -15v-3q0 -39 -44 -72.5t-120 -52.5t-165 -19v0v0zM512 240q-90 0 -165.5 19.5t-119.5 52.5t-45 72
q-28 8 -49 15q-1 -7 -1 -15q0 -53 50.5 -98.5t138 -71.5t191 -26t191 26t138.5 71.5t51 98.5q0 10 -2 19q-23 -8 -49 -16v-3q0 -39 -44 -72t-120 -52.5t-165 -19.5v0v0zM182 568q0 39 44.5 72t120 52.5t165 19.5t165.5 -19.5t120 -52.5t44 -72t-44 -72.5t-120 -52.5
t-165.5 -19t-165 19t-120 52.5t-44.5 72.5v0v0zM132 568q0 -54 50.5 -99t138 -71.5t191 -26.5t191 26.5t138.5 71.5t51 98.5t-51 99t-138.5 71.5t-191 26t-191 -26t-138 -71.5t-50.5 -98.5v0v0zM132 568z" />
    <glyph glyph-name="shenhezhong" unicode="&#xe651;" 
d="M948 578q-35 82 -98 145t-145 98q-85 36 -178 36t-177 -36q-82 -35 -145 -98t-98 -145q-36 -85 -36 -177.5t36 -177.5q35 -82 98 -145t145 -98q84 -35 177 -35t178 35q82 35 145 98t98 145q36 85 36 177.5t-36 177.5zM930 401q0 -82 -32 -157q-30 -72 -86 -128t-128 -86
q-75 -32 -156.5 -32t-156.5 32q-72 30 -128 86t-86 128q-32 75 -32 157t32 156q30 73 86 128.5t128 85.5q75 32 156.5 32t156.5 -32q72 -30 128 -85.5t86 -128.5q32 -74 32 -156zM519 657h-52l1 -290h-1h1v0v0l233 -171l31 41l-213 156v264z" />
    <glyph glyph-name="daichuxing" unicode="&#xe623;" 
d="M874 679h-98v187q0 10 -6.5 16.5t-16.5 6.5h-482q-10 0 -16.5 -6.5t-6.5 -16.5v-187h-98q-56 0 -96 -40t-40 -96v-481q0 -57 40 -97t96 -40h112v-23q0 -10 7 -16.5t16 -6.5t16 6.5t7 16.5v23h409v-23q0 -10 6.5 -16.5t16 -6.5t16 6.5t6.5 16.5v23h112q56 0 96 40t40 97
v481q0 56 -40 96t-96 40zM293 843h438v-164h-438v164zM965 62q0 -38 -27 -64.5t-64 -26.5h-724q-38 0 -64.5 26.5t-26.5 64.5v481q0 37 27 64t64 27h121h482h121q38 0 64.5 -27t26.5 -64v-481zM353.5 489q-9.5 0 -16 -6.5t-6.5 -15.5v-350q0 -9 6.5 -15.5t16 -6.5t16 6.5
t6.5 15.5v350q0 9 -6.5 15.5t-16 6.5zM671.5 489q-9.5 0 -16 -6.5t-6.5 -15.5v-350q0 -9 6.5 -15.5t16 -6.5t16 6.5t6.5 15.5v350q0 9 -6.5 15.5t-16 6.5z" />
    <glyph glyph-name="youhuijuan" unicode="&#xe6f9;" 
d="M910 62h-794q-20 0 -34.5 14.5t-14.5 35.5v99v25v25v0q0 10 7 17t18 7v0q0 1 -0.5 2t-0.5 2q33 8 54 34.5t21 61t-21 61t-54 34.5q0 1 0.5 2t0.5 2q-11 0 -18 7t-7 17v25v25v99q0 21 14.5 35.5t34.5 14.5h794q21 0 35.5 -14.5t14.5 -35.5v-99v-25v-25v0q0 -10 -7.5 -17
t-17.5 -7v-2v-2q-32 -8 -53.5 -34.5t-21.5 -61t21.5 -61t53.5 -34.5v-2v-2q10 0 17.5 -7t7.5 -17v0v-25v-25v-99q0 -21 -14.5 -35.5t-35.5 -14.5v0zM910 244q-44 16 -71.5 54.5t-27.5 86t27.5 86t71.5 54.5v107q0 11 -7.5 18t-17.5 7h-744q-10 0 -17.5 -7t-7.5 -18v-107
q44 -16 72 -54.5t28 -86t-28 -86t-72 -54.5v0v-107q0 -11 7.5 -18t17.5 -7h744q10 0 17.5 7t7.5 18v107v0zM625 285h-87v-62q0 -5 -3.5 -8.5t-8.5 -3.5h-25q-5 0 -9 3.5t-4 8.5v62h-86q-5 0 -9 4t-4 9v25q0 5 4 8.5t9 3.5h86v50h-86q-5 0 -9 3.5t-4 8.5v25q0 5 4 8.5t9 3.5
h68l-76 84q-8 8 0 17l15 17q8 9 16 0l88 -95l88 96q8 9 16 0l16 -17q8 -9 0 -18l-77 -84h69q5 0 8.5 -3.5t3.5 -8.5v-25q0 -5 -3.5 -8.5t-8.5 -3.5h-87v-50h87q5 0 8.5 -3.5t3.5 -8.5v-25q0 -5 -3.5 -9t-8.5 -4v0zM625 285z" />
    <glyph glyph-name="dangdiyou" unicode="&#xe653;" 
d="M512 193q6 3 15.5 9t37 27t52.5 43.5t55.5 57t52.5 69t37 79t15 88.5q0 110 -77.5 187.5t-187 77.5t-187.5 -77.5t-78 -187.5q0 -44 15 -88.5t37 -79t52.5 -69t56 -57t52.5 -43t37 -27t15 -9.5v0zM513 702q52 0 90 -38t38 -89q1 -55 -37.5 -93t-92.5 -38q-52 1 -89.5 39
t-38.5 89q0 54 38 92.5t92 37.5zM736 247q-35 -34 -71 -67q-7 -6 -4.5 -15.5t11.5 -11.5q15 -4 30 -9q18 -7 34 -15q8 -4 8 -13t-8 -13q-16 -8 -34 -15q-83 -29 -190.5 -29t-190.5 29q-18 7 -34 15q-8 4 -8 13t8 13q16 8 34 15q15 5 31 9q9 3 11.5 12t-4.5 15q-37 34 -71 68
q-11 11 -25 5q-63 -25 -99 -61t-36 -76q0 -49 51 -90.5t139.5 -65.5t193 -24t192.5 24t139.5 65.5t51.5 90.5q0 40 -35.5 75.5t-98.5 60.5q-14 6 -25 -5z" />
    <glyph glyph-name="liuyan" unicode="&#xe6f7;" 
d="M512 -32q-13 0 -23 9l-96 96q-9 10 -9 23t9.5 22.5t22.5 9.5t22 -9l74 -74l73 74q10 9 23 9h224q13 0 22.5 9.5t9.5 22.5v512q0 13 -9.5 22.5t-22.5 9.5h-640q-13 0 -22.5 -9.5t-9.5 -22.5v-512q0 -13 9.5 -22.5t22.5 -9.5h96q13 0 22.5 -9.5t9.5 -22.5t-9.5 -22.5
t-22.5 -9.5h-96q-40 0 -68 28t-28 68v512q0 40 28 68t68 28h640q40 0 68 -28t28 -68v-512q0 -40 -28 -68t-68 -28h-211l-86 -87q-10 -9 -23 -9zM336 384q-20 0 -34 14t-14 34t14 34t34 14t34 -14t14 -34t-14 -34t-34 -14zM528 384q-20 0 -34 14t-14 34t14 34t34 14t34 -14
t14 -34t-14 -34t-34 -14zM720 384q-20 0 -34 14t-14 34t14 34t34 14t34 -14t14 -34t-14 -34t-34 -14z" />
    <glyph glyph-name="my" unicode="&#xe64a;" 
d="M753.5 245q-4.5 0 -7.5 -3q-8 -8 0 -16q96 -97 96 -235q0 -4 3.5 -7.5t7.5 -3.5t7.5 3.5t3.5 7.5q0 147 -103 251q-3 3 -7.5 3zM512.5 789q-95.5 0 -163.5 -68t-68 -165q0 -68 36 -124q35 -56 93 -85l21 -10l-22 -7q-83 -25 -146 -88q-103 -104 -103 -251q0 -4 3.5 -7.5
t8 -3.5t7.5 3.5t3 7.5q0 138 97 235q92 94 224 97v0v0h9q96 0 164 68.5t68 165t-68 164.5t-163.5 68zM662 408.5q-60 -61.5 -146 -63.5h-1h-1q-1 1 -2 1q-6 0 -9 -1v0v0q-84 4 -142.5 65t-58.5 146q0 87 61.5 149t148.5 62t148.5 -62t61.5 -149q0 -86 -60 -147.5z" />
    <glyph glyph-name="aiguifanfile2" unicode="&#xe635;" 
d="M758 845h-492q-29 0 -52 -20.5t-23 -49.5v-667q0 -28 23 -51.5t52 -23.5h367l195 212l5 12v78v440q0 29 -23 49.5t-52 20.5v0zM619 103v127q0 15 10 25t25 10h117zM784 314h-130q-31 0 -59 -21t-28 -49v-162h-293q-14 0 -24 10t-10 25v644q0 15 10 25t24 10h476
q14 0 24 -10t10 -25v-447zM318 610h388v46h-388v-46zM318 506h388v46h-388v-46zM318 401h179v46h-179v-46zM318 297h179v46h-179v-46zM318 297z" />
    <glyph glyph-name="gentuanyou" unicode="&#xe650;" 
d="M757 551q-11 13 0 26q46 54 99 96q10 7 11 14.5t-6 13.5t-11.5 8.5t-10.5 5.5q-47 19 -101.5 19t-101 -13t-101 -26t-101 -19t-101.5 7v-344q55 -13 101.5 -6.5t101.5 19t101.5 25.5t101 13t101.5 -19q14 -6 19 2q6 9 -2 24q-47 83 -100 154zM262.5 734q-14.5 0 -25 -10
t-10.5 -25v-667q0 -14 10.5 -24t25 -10t25 10t10.5 24v667q0 15 -10.5 25t-25 10z" />
    <glyph glyph-name="daizhifu" unicode="&#xe633;" 
d="M930 98v106h28v277h-28v99q0 21 -15 37t-35 16h-47v84h-679q-50 0 -71 -25q-25 -30 -12 -105v-1v0v-6v-482q0 -20 14.5 -33.5t35.5 -13.5h759q21 0 35.5 13.5t14.5 33.5zM930 231h-262q-45 0 -77.5 33t-32.5 78.5t32.5 78t77.5 32.5h262v-222v0zM104.5 674.5
q12.5 14.5 49.5 14.5h651v-56h-684q-13 0 -27 -8q-2 35 10.5 49.5zM98 98v482q0 10 7 18t16 8h759q9 0 15.5 -8t6.5 -18v-99h-234q-57 0 -97.5 -40.5t-40.5 -98t40.5 -98t97.5 -40.5h234v-106q0 -9 -6 -14t-16 -5h-759q-10 0 -16.5 5t-6.5 14zM625 339q0 -23 16.5 -39
t39 -16t39 16t16.5 39t-16.5 39.5t-39 16.5t-39 -16.5t-16.5 -39.5zM681 367q11 0 19 -8t8 -19.5t-8 -20t-19.5 -8.5t-19.5 8.5t-8 20t8 19.5t20 8v0z" />
    <glyph glyph-name="zhifubao" unicode="&#xe60f;" 
d="M610 299l70 158l2 60h-202v38h270v68h-270v105l-101 -2v-100l-240 -1v-65h238v-43h-174v-64l377 2l-79 -141q-3 3 -9.5 8t-30 17.5t-51 22t-72.5 17.5t-95 8q-51 0 -90 -12.5t-61 -31t-36.5 -43.5t-19 -46t-4.5 -42q0 -77 58.5 -121.5t158.5 -44.5q38 0 75.5 9t67 24
t57 33t47.5 36t34.5 33t22.5 24l8 9l360 -196l83 132zM239 108q-46 0 -80 11t-52.5 29t-27.5 37.5t-9 39.5q0 39 51 76t120 37q27 0 60.5 -10t63 -24t54.5 -28t40 -24t14 -10q-4 -6 -12 -15t-33.5 -32t-51.5 -40.5t-63.5 -32t-73.5 -14.5z" />
    <glyph glyph-name="huiyuanzhongxindingdan150050" unicode="&#xe655;" 
d="M755 590h-47v29q0 7 -4.5 11.5t-11.5 4.5h-59q-14 27 -40 43t-56.5 16t-56.5 -16t-40 -43h-62q-6 0 -11 -4.5t-5 -11.5v-29h-45q-7 0 -11.5 -4.5t-4.5 -11.5v-408q0 -6 4.5 -11t11.5 -5h438q7 0 11.5 5t4.5 11v408q0 7 -4.5 11.5t-11.5 4.5zM537 662q36 0 58 -27h-116
q22 27 58 27zM396 603h281v-44h-281v44zM739 182h-406v376h31v-15q0 -6 4.5 -11t11.5 -5h313q7 0 11.5 5t4.5 11v15h31v-376h-1zM465 428h203q6 0 11 4.5t5 11t-5 11.5t-11 5h-203q-7 0 -11.5 -5t-4.5 -11.5t4.5 -11t11.5 -4.5zM668 375h-203q-6 0 -11 -4.5t-5 -11.5
t5 -11.5t11 -4.5h203q7 0 11.5 4.5t4.5 11.5t-4.5 11.5t-11.5 4.5zM412 359zM396 359q0 6 4.5 10.5t11 4.5t11 -4.5t4.5 -10.5t-4.5 -10.5t-11 -4.5t-11 4.5t-4.5 10.5zM668 291h-203q-6 0 -11 -5t-5 -11.5t5 -11t11 -4.5h203q7 0 11.5 4.5t4.5 11t-4.5 11.5t-11.5 5z
M412 444zM396 443.5q0 6.5 4.5 11t11 4.5t11 -4.5t4.5 -11t-4.5 -11t-11 -4.5t-11 4.5t-4.5 11zM412 275zM396 274.5q0 6.5 4.5 11t11 4.5t11 -4.5t4.5 -11t-4.5 -11t-11 -4.5t-11 4.5t-4.5 11z" />
    <glyph glyph-name="address" unicode="&#xe622;" 
d="M804 614q-4 10 -13.5 14t-19.5 0q-9 -4 -13 -13t0 -19q22 -55 22 -108q0 -65 -79 -203q-29 -51 -63 -99q-46 -66 -100 -137q-6 -6 -15 -17.5t-13 -16.5q-3 5 -12 16.5t-15 17.5q-54 71 -101 137q-21 30 -63 99q-78 133 -78 203q0 111 79 190.5t190 79.5q74 0 144 -43
q9 -5 19 -3t15 10q5 9 3 19t-10 15q-78 50 -169 50q-86 0 -159 -43t-115.5 -116t-42.5 -159q0 -82 85 -229q22 -38 65 -102q48 -72 102 -138q5 -7 17 -21t17 -22q4 -4 8.5 -9t5.5 -6q8 -9 19 -9t18 9q2 3 14 15q10 12 34 43q60 78 103 138q42 64 65 102q85 147 85 229
q-6 67 -29 126zM365 479.5q0 -57.5 41.5 -98.5t99 -41t98.5 41t41 98.5t-41 99t-99 41.5q-59 -2 -99.5 -42.5t-40.5 -98zM596 479.5q0 -37.5 -27 -64t-64 -26.5t-63.5 26.5t-26.5 64t26.5 64t63.5 26.5t64 -26.5t27 -64z" />
    <glyph glyph-name="jipiao" unicode="&#xe63b;" 
d="M351 -64h-1q-17 1 -24 17l-76 172l-172 92q-14 8 -15 23.5t12 24.5l59 40q8 6 18 5l137 -8l113 125l-327 227q-13 9 -12 24t14 23l89 51q11 6 23 2l393 -131l173 174q32 31 80 31q52 0 87 -35q34 -34 35.5 -84t-30.5 -82l-174 -175l117 -391q4 -12 -2 -22l-51 -89
q-8 -13 -24 -14q-16 0 -24 13l-217 328l-129 -119l-2 -123q-1 -7 -4 -13l-41 -72q-8 -14 -25 -14zM558 348q1 0 3 -1q13 -1 20 -12l210 -318l22 39l-118 396q-5 15 7 27l185 187q16 16 14.5 43t-19.5 44q-16 17 -44 18.5t-43 -13.5l-185 -187q-8 -8 -20 -8q-4 0 -9 1
l-398 133l-40 -23l317 -220q10 -7 12 -19v-4q0 -10 -7 -18l-144 -159q-9 -10 -23 -9l-140 9l-13 -9l140 -76q9 -4 12 -13l58 -130l10 18l3 128q0 12 9 20l162 148q8 8 19 8z" />
  </font>
</defs>
</svg>
